<svg width="526" height="77" viewBox="0 0 526 77" fill="none" xmlns="http://www.w3.org/2000/svg">
<path d="M50.6338 65.2448C49.461 65.0003 48.5214 64.5398 47.8007 63.8637C47.0801 63.1875 46.522 62.238 46.1264 61.0223C45.7237 59.8067 45.3704 58.2529 45.0526 56.3538L44.5721 52.8651C44.2542 50.6999 43.8303 48.7793 43.2934 47.1032C42.7635 45.4272 41.9369 43.9885 40.8207 42.8017C39.7045 41.6147 38.2279 40.6652 36.3981 39.9602C34.5612 39.2553 32.2086 38.7445 29.3403 38.4208V38.1763C35.2395 37.2556 39.5067 35.5507 42.1347 33.0618C44.7629 30.5729 46.084 27.487 46.084 23.804C46.084 19.5815 44.12 16.2294 40.1848 13.7333C36.2497 11.2444 30.5907 10 23.201 10H0V10.6474C2.02054 10.7049 3.65253 10.8416 4.90301 11.0574C6.15349 11.2732 7.10724 11.6113 7.77133 12.0717C8.43541 12.5321 8.87348 13.1003 9.08541 13.7765C9.29734 14.4527 9.40335 15.2799 9.40335 16.251V60.2526C9.40335 61.2237 9.29734 62.0654 9.08541 62.7704C8.87348 63.4752 8.43541 64.0436 7.77133 64.4751C7.10724 64.9067 6.14642 65.2304 4.90301 65.4462C3.65253 65.662 2.02054 65.7987 0 65.8562V66.59H25.2003V65.8562C23.1797 65.8059 21.5831 65.6693 20.4174 65.4462C19.2447 65.2304 18.3474 64.9067 17.7045 64.4751C17.0686 64.0436 16.6519 63.4897 16.4682 62.8135C16.2845 62.1373 16.1856 61.31 16.1856 60.339V38.9029H23.9993C26.3943 38.9029 28.3583 39.0395 29.8984 39.3056C31.4386 39.579 32.689 40.0897 33.6428 40.8523C34.5966 41.6075 35.303 42.6362 35.7552 43.9382C36.2073 45.2401 36.5677 46.8874 36.8291 48.8944L37.7051 56.2028C37.917 58.0443 38.1926 59.6412 38.5387 60.9936C38.8849 62.3459 39.3865 63.4681 40.0506 64.36C40.7147 65.252 41.6048 65.9138 42.7211 66.3526C43.8374 66.7914 45.2715 67 47.0307 67C48.3588 67 49.7294 66.9424 51.1353 66.8345C52.5413 66.7266 53.9118 66.5397 55.2401 66.2663V65.6189C53.3255 65.6189 51.7853 65.4966 50.6126 65.252L50.6338 65.2448ZM23.7591 37.6799H16.1856V11.2157H22.8053C25.7302 11.2157 28.1887 11.4746 30.181 11.9854C32.1733 12.5033 33.77 13.2874 34.964 14.3376C36.1579 15.395 37.0269 16.7186 37.5568 18.3155C38.0866 19.9124 38.355 21.7683 38.355 23.876C38.355 26.1491 38.1572 28.1559 37.7546 29.8824C37.3518 31.616 36.61 33.0474 35.5221 34.184C34.4341 35.3205 32.9434 36.1837 31.057 36.7808C29.1707 37.3778 26.7405 37.6728 23.7591 37.6728V37.6799Z" fill="#343434"/>
<path d="M76.0471 76.9999H123.86L124.269 59.272L123.537 59.1924C122.402 62.2978 121.332 64.9111 120.334 67.032C119.336 69.1531 118.238 70.8759 117.053 72.1788C115.861 73.4891 114.511 74.4157 113.003 74.9585C111.488 75.5015 109.679 75.7766 107.575 75.7766H92.504V47.9939H100.201C101.659 47.9939 102.915 48.1604 103.971 48.4862C105.026 48.8119 105.931 49.3982 106.685 50.2451C107.439 51.0921 108.106 52.2431 108.667 53.7199C109.234 55.1894 109.787 57.0425 110.325 59.272H111.05V35.5793H110.325C109.787 37.8161 109.234 39.6548 108.667 41.0953C108.099 42.5358 107.439 43.6795 106.685 44.5265C105.931 45.3735 105.026 45.9598 103.971 46.2855C102.915 46.6113 101.659 46.7777 100.201 46.7777H92.504V21.2826H106.197C108.142 21.2826 109.801 21.5432 111.18 22.0571C112.558 22.5783 113.8 23.447 114.906 24.6704C116.012 25.8937 117.039 27.5008 117.986 29.4915C118.934 31.4821 119.947 33.9434 121.023 36.8823L121.756 36.8026L121.512 20.052H76.0471V20.7035C78.1006 20.7614 79.7593 20.8917 81.0301 21.1161C82.301 21.3333 83.2703 21.6735 83.9453 22.1368C84.6202 22.6001 85.0654 23.1719 85.2808 23.8524C85.4962 24.5328 85.6039 25.3653 85.6039 26.3498V70.6949C85.6039 71.6794 85.4962 72.5191 85.2808 73.2285C85.0654 73.9379 84.6202 74.5098 83.9453 74.9441C83.2703 75.3784 82.2938 75.7114 81.0301 75.9286C79.7593 76.1458 78.1006 76.2833 76.0471 76.334V76.9999Z" fill="#343434"/>
<path d="M91.3174 14.4375H92.2861L101.765 6.53261L111.238 14.4375H112.213L102.411 0H101.679L91.3174 14.4375Z" fill="#343434"/>
<path d="M173.755 67.9782H174.896L192.745 22.5271C193.72 20.063 194.608 18.0568 195.395 16.5013C196.182 14.9458 196.998 13.681 197.843 12.7288C198.688 11.7694 199.619 11.0716 200.652 10.6355C201.684 10.1993 202.905 9.87225 204.32 9.65418V9H185.741V9.65418C187.806 9.87225 189.409 10.2139 190.55 10.6791C191.691 11.1443 192.464 11.7985 192.875 12.6489C193.28 13.4993 193.366 14.6187 193.121 16.0143C192.875 17.4098 192.348 19.1471 191.532 21.2259L177.271 58.3908H177.026L162.115 17.0464C161.624 15.7308 161.343 14.626 161.263 13.7247C161.184 12.8233 161.386 12.0819 161.877 11.5077C162.368 10.9335 163.206 10.5119 164.404 10.2357C165.596 9.95947 167.228 9.77048 169.293 9.66145V9.00727H145.089V9.66145C146.721 9.82863 148.035 10.0612 149.039 10.3592C150.042 10.6573 150.887 11.1225 151.566 11.7548C152.245 12.3872 152.859 13.2449 153.4 14.3425C153.942 15.4401 154.541 16.8575 155.191 18.6092L173.769 68L173.755 67.9782Z" fill="#343434"/>
<path d="M225.276 67.5H274.065L274.475 49.4446L273.728 49.3635C272.57 52.5263 271.478 55.1878 270.46 57.348C269.442 59.5082 268.321 61.2628 267.112 62.5899C265.896 63.9243 264.518 64.868 262.979 65.4209C261.434 65.9739 259.587 66.2541 257.44 66.2541H242.062V37.9581H249.916C251.403 37.9581 252.685 38.1277 253.763 38.4595C254.84 38.7912 255.763 39.3884 256.532 40.2509C257.301 41.1136 257.983 42.2858 258.561 43.7898C259.14 45.2865 259.704 47.1739 260.254 49.4446H261.001V25.3141H260.254C259.704 27.5923 259.14 29.4649 258.561 30.9321C257.983 32.3992 257.309 33.564 256.532 34.4267C255.763 35.2892 254.84 35.8864 253.763 36.2181C252.685 36.55 251.403 36.7195 249.916 36.7195H242.062V10.7533H256.034C258.019 10.7533 259.712 11.0188 261.118 11.5422C262.525 12.073 263.793 12.9577 264.921 14.2037C266.049 15.4497 267.097 17.0864 268.064 19.1139C269.031 21.1413 270.064 23.648 271.163 26.6412L271.911 26.5601L271.662 9.5H225.269V10.1635C227.364 10.2225 229.057 10.3552 230.354 10.5838C231.651 10.8049 232.64 11.1515 233.328 11.6233C234.017 12.0951 234.471 12.6776 234.691 13.3706C234.911 14.0636 235.021 14.9115 235.021 15.9141V61.0785C235.021 62.0812 234.911 62.9364 234.691 63.6589C234.471 64.3814 234.017 64.9638 233.328 65.4062C232.64 65.8485 231.643 66.1876 230.354 66.4089C229.057 66.6301 227.364 66.7701 225.269 66.8217V67.4852L225.276 67.5Z" fill="#343434"/>
<path d="M347.623 64.7756C346.408 64.5353 345.436 64.083 344.689 63.4187C343.943 62.7544 343.365 61.8216 342.956 60.6272C342.546 59.4329 342.173 57.9064 341.844 56.0406L341.346 52.6131C341.017 50.4859 340.578 48.5989 340.022 46.9523C339.474 45.3057 338.618 43.8923 337.462 42.7262C336.306 41.56 334.777 40.6272 332.883 39.9346C330.981 39.242 328.552 38.7402 325.575 38.4222V38.182C331.683 37.2774 336.101 35.6024 338.822 33.1572C341.544 30.712 342.912 27.6802 342.912 24.0619C342.912 19.9134 340.878 16.6201 336.803 14.1678C332.729 11.7226 326.869 10.5 319.218 10.5H295.187V11.136C297.279 11.1926 298.969 11.3269 300.264 11.5389C301.558 11.7509 302.546 12.083 303.234 12.5353C303.921 12.9876 304.375 13.5459 304.594 14.2103C304.814 14.8746 304.923 15.6873 304.923 16.6413V59.871C304.923 60.8251 304.814 61.652 304.594 62.3446C304.375 63.0371 303.921 63.5954 303.234 64.0194C302.546 64.4435 301.551 64.7615 300.264 64.9735C298.969 65.1855 297.279 65.3198 295.187 65.3763V66.0972H321.28V65.3763C319.188 65.3268 317.535 65.1926 316.328 64.9735C315.114 64.7615 314.185 64.4435 313.519 64.0194C312.86 63.5954 312.429 63.0513 312.239 62.3869C312.048 61.7226 311.953 60.9099 311.953 59.9558V38.8958H320.044C322.524 38.8958 324.558 39.03 326.152 39.2915C327.747 39.5601 329.042 40.0618 330.03 40.811C331.024 41.553 331.749 42.5636 332.217 43.8428C332.685 45.1219 333.058 46.7403 333.329 48.712L334.236 55.8923C334.455 57.7014 334.748 59.2703 335.106 60.5989C335.465 61.9276 335.984 63.0301 336.672 63.9063C337.359 64.7827 338.281 65.4328 339.437 65.864C340.593 66.2951 342.078 66.5 343.899 66.5C345.275 66.5 346.694 66.4434 348.15 66.3374C349.605 66.2314 351.024 66.0477 352.4 65.7792V65.1431C350.417 65.1431 348.822 65.0229 347.608 64.7827L347.623 64.7756ZM319.795 37.6943H311.953V11.6943H318.808C321.836 11.6943 324.382 11.9488 326.445 12.4505C328.508 12.9594 330.161 13.7297 331.397 14.7615C332.634 15.8004 333.534 17.1007 334.082 18.6696C334.631 20.2385 334.909 22.0619 334.909 24.1325C334.909 26.3657 334.704 28.3374 334.287 30.0336C333.877 31.7368 333.102 33.1431 331.975 34.2597C330.849 35.3763 329.305 36.2243 327.352 36.8109C325.399 37.3975 322.882 37.6873 319.795 37.6873V37.6943Z" fill="#343434"/>
<path d="M373.219 66.5H398.468V65.8592C396.47 65.8095 394.853 65.6742 393.619 65.4606C392.384 65.247 391.436 64.9266 390.768 64.4924C390.1 64.0652 389.649 63.5099 389.417 62.8407C389.186 62.1715 389.07 61.3243 389.07 60.3062V16.6937C389.07 15.7255 389.186 14.8997 389.417 14.202C389.649 13.5043 390.1 12.9419 390.768 12.5147C391.436 12.0876 392.384 11.7601 393.619 11.5465C394.853 11.333 396.47 11.1977 398.468 11.1407V10.5H373.219V11.1407C375.218 11.1977 376.834 11.3258 378.069 11.5465C379.303 11.7601 380.251 12.0805 380.92 12.5147C381.588 12.9419 382.038 13.5043 382.263 14.202C382.495 14.8997 382.611 15.7326 382.611 16.6937V60.3062C382.611 61.3243 382.495 62.1715 382.263 62.8407C382.031 63.5099 381.581 64.0581 380.92 64.4924C380.251 64.9195 379.303 65.247 378.069 65.4606C376.834 65.6742 375.218 65.8095 373.219 65.8592V66.5Z" fill="#343434"/>
<path d="M419.135 67H465.972L466.373 49.2559L465.656 49.1762C464.544 52.2844 463.496 54.9001 462.519 57.023C461.541 59.146 460.465 60.8703 459.304 62.1745C458.137 63.486 456.814 64.4134 455.337 64.9568C453.853 65.5002 452.081 65.7755 450.02 65.7755H435.256V37.9675H442.796C444.224 37.9675 445.455 38.1341 446.489 38.4602C447.523 38.7862 448.409 39.3731 449.148 40.2208C449.886 41.0685 450.54 42.2206 451.096 43.6986C451.652 45.1695 452.193 47.0243 452.721 49.2559H453.438V25.5415H452.721C452.193 27.7804 451.652 29.6207 451.096 31.0625C450.54 32.5044 449.893 33.6491 449.148 34.4969C448.409 35.3446 447.523 35.9315 446.489 36.2575C445.455 36.5836 444.224 36.7502 442.796 36.7502H435.256V11.2317H448.669C450.576 11.2317 452.2 11.4926 453.551 12.007C454.901 12.5287 456.118 13.3981 457.201 14.6226C458.284 15.8471 459.29 17.4556 460.219 19.4481C461.147 21.4405 462.139 23.9041 463.194 26.8457L463.911 26.7659L463.672 10H419.135V10.6521C421.147 10.7101 422.772 10.8405 424.017 11.0651C425.262 11.2824 426.211 11.623 426.872 12.0867C427.533 12.5504 427.969 13.1228 428.18 13.8039C428.391 14.4849 428.497 15.3182 428.497 16.3035V60.6892C428.497 61.6746 428.391 62.5151 428.18 63.2252C427.969 63.9352 427.533 64.5076 426.872 64.9423C426.211 65.377 425.254 65.7103 424.017 65.9277C422.772 66.1451 421.147 66.2827 419.135 66.3334V67Z" fill="#343434"/>
<path d="M487.315 68.5H487.963L492.351 64.4214C494.303 65.4555 496.55 66.3378 499.101 67.0754C501.651 67.813 504.223 68.1746 506.823 68.1746C509.964 68.1746 512.716 67.6611 515.079 66.627C517.435 65.593 519.387 64.2334 520.936 62.5485C522.477 60.8635 523.63 58.9616 524.394 56.8428C525.15 54.7239 525.532 52.6051 525.532 50.4862C525.532 48.0926 525.128 46.0606 524.314 44.3684C523.5 42.6834 522.362 41.2299 520.9 40.0078C519.437 38.7857 517.687 37.7515 515.655 36.9126C513.624 36.0738 511.391 35.2711 508.948 34.5046C506.398 33.6946 504.215 32.8992 502.4 32.1398C500.585 31.3806 499.079 30.5272 497.89 29.5726C496.695 28.6181 495.816 27.5045 495.247 26.2317C494.677 24.959 494.396 23.3897 494.396 21.5457C494.396 17.9589 495.477 15.1747 497.645 13.1933C499.814 11.2118 502.58 10.2139 505.937 10.2139C507.724 10.2139 509.381 10.5031 510.901 11.0744C512.413 11.6457 513.825 12.5858 515.129 13.8875C516.426 15.1964 517.665 16.8814 518.832 18.9496C519.999 21.0178 521.123 23.5199 522.204 26.4559H522.852V8.5H522.204L519.524 11.6023C518.004 10.9515 516.16 10.3513 513.998 9.8089C511.83 9.26654 509.474 8.99174 506.924 8.99174C504.374 8.99174 502.155 9.37502 499.929 10.1343C497.703 10.8936 495.751 12.0001 494.072 13.4391C492.394 14.8782 491.047 16.621 490.045 18.6603C489.044 20.6996 488.54 22.9992 488.54 25.5592C488.54 27.9528 488.943 29.9704 489.757 31.5975C490.571 33.2318 491.709 34.6347 493.172 35.799C494.634 36.9706 496.399 37.9757 498.46 38.8218C500.52 39.6679 502.796 40.4706 505.289 41.2299C507.947 42.047 510.224 42.8931 512.118 43.761C514.013 44.6287 515.547 45.5833 516.714 46.6174C517.881 47.6515 518.731 48.8374 519.272 50.1681C519.812 51.4986 520.086 53.0679 520.086 54.8614C520.086 56.4957 519.826 58.0287 519.315 59.475C518.796 60.9214 518.025 62.1941 516.995 63.3078C515.965 64.4214 514.647 65.3109 513.055 65.9618C511.455 66.6126 509.568 66.938 507.4 66.938C504.957 66.938 502.789 66.5837 500.894 65.875C498.993 65.1662 497.278 64.067 495.729 62.5702C494.18 61.0732 492.804 59.1569 491.58 56.8138C490.362 54.4781 489.181 51.6722 488.043 48.4036H487.308V68.4855L487.315 68.5Z" fill="#343434"/>
</svg>
