<?xml version="1.0" standalone="no"?>
<!DOCTYPE svg PUBLIC "-//W3C//DTD SVG 20010904//EN"
 "http://www.w3.org/TR/2001/REC-SVG-20010904/DTD/svg10.dtd">
<svg version="1.0" xmlns="http://www.w3.org/2000/svg"
 width="657.000000pt" height="277.000000pt" viewBox="0 0 657.000000 277.000000"
 preserveAspectRatio="xMidYMid meet">

<g transform="translate(0.000000,277.000000) scale(0.100000,-0.100000)"
fill="#000000" stroke="none">
<path d="M1839 1439 c-319 -878 -490 -1334 -501 -1340 -10 -5 -196 -8 -442 -7
l-425 3 710 1230 c391 677 726 1258 746 1293 l35 62 -906 0 -906 0 0 -401 c0
-264 3 -398 10 -394 6 3 10 27 10 53 0 66 33 215 63 290 61 150 186 288 318
354 141 69 153 71 567 75 204 3 372 2 372 -1 0 -5 -1421 -2471 -1472 -2553
l-20 -33 1006 0 1006 0 0 380 c0 209 -4 380 -9 380 -4 0 -11 -38 -14 -84 -12
-169 -85 -326 -207 -448 -62 -61 -96 -86 -171 -122 -79 -38 -225 -84 -234 -74
-1 2 68 196 155 433 l156 430 446 3 445 2 156 -432 c87 -238 157 -436 157
-440 0 -5 -70 -8 -155 -8 -97 0 -155 -4 -155 -10 0 -7 213 -10 620 -10 407 0
620 3 620 10 0 6 -60 10 -160 10 l-160 0 0 666 0 666 263 -5 c286 -5 340 -13
452 -67 88 -42 157 -110 197 -195 l33 -70 5 -230 5 -230 -96 -265 -96 -265
-132 -3 c-76 -1 -131 -7 -131 -12 0 -13 527 -13 535 0 4 6 -43 10 -123 12
l-128 3 87 240 c83 228 87 238 94 200 41 -246 129 -396 275 -469 38 -19 96
-40 127 -46 83 -18 255 -8 320 18 60 23 156 90 148 102 -3 5 -29 -8 -57 -30
-62 -46 -120 -64 -192 -58 -68 6 -111 36 -149 106 -46 85 -57 161 -57 422 0
194 -3 249 -19 313 l-18 77 323 0 322 0 16 -43 c9 -23 81 -220 160 -437 l143
-395 -158 -3 c-95 -1 -159 -6 -159 -12 0 -6 196 -10 540 -10 345 0 540 4 540
10 0 6 -68 11 -171 12 l-171 3 -486 1338 c-267 735 -490 1337 -496 1337 -6 0
-134 -341 -285 -758 -151 -416 -278 -765 -283 -775 -8 -16 -12 -15 -46 11
-100 79 -254 139 -444 172 -57 10 -89 18 -72 19 63 2 192 43 293 92 88 43 117
65 186 133 127 126 173 240 162 401 -11 152 -70 269 -195 386 -123 115 -298
189 -515 218 -104 14 -1257 15 -1257 1 0 -6 60 -10 160 -10 l160 0 -1 -997 c0
-888 -2 -994 -15 -958 -8 22 -180 494 -382 1049 -202 555 -372 1011 -378 1013
-6 2 -210 -543 -495 -1328z m2152 1193 c134 -44 230 -128 288 -253 57 -121 66
-175 66 -384 -1 -255 -30 -368 -117 -454 -84 -84 -167 -101 -485 -101 l-243 0
0 611 0 611 213 -4 c181 -4 222 -8 278 -26z m-1632 -1062 l208 -575 -430 -3
c-237 -1 -432 0 -434 2 -3 3 362 1018 419 1166 10 24 11 24 19 5 5 -11 103
-279 218 -595z m2906 20 c114 -316 210 -581 212 -587 4 -10 -64 -13 -318 -13
l-324 0 -29 56 c-16 30 -49 77 -73 104 -23 26 -43 51 -43 55 0 6 307 856 348
963 2 7 8 10 12 5 4 -4 100 -267 215 -583z"/>
</g>
</svg>
